<svg width="32" height="32" xmlns="http://www.w3.org/2000/svg" data-name="图层 1">

 <title>莫吉托logo新</title>
 <g>
  <title>Layer 1</title>
  <g stroke="null" id="svg_33">
   <path stroke="null" id="svg_12" fill="none" d="m10.17591,6.74893l3.79183,2.18119a4.85673,4.85673 0 0 0 0.56346,-2.27687a4.93115,4.93115 0 0 0 -0.04784,-0.67154l-4.30745,0.76723z" class="cls-8"/>
   <path stroke="null" id="svg_13" fill="none" d="m12.956,3.05456l-2.83501,3.36658l4.31099,-0.76014a4.91521,4.91521 0 0 0 -1.47598,-2.60644z" class="cls-8"/>
   <path stroke="null" id="svg_14" fill="none" d="m9.23504,6.74893l-4.46869,-0.78849a4.80358,4.80358 0 0 0 -0.05138,0.69989a4.87977,4.87977 0 0 0 0.60067,2.35129l3.91941,-2.2627z" class="cls-8"/>
   <path stroke="null" id="svg_15" fill="none" d="m6.40003,2.97128a4.90635,4.90635 0 0 0 -1.57698,2.66669l4.46869,0.78849l-2.89172,-3.45517z" class="cls-8"/>
   <path stroke="null" id="svg_16" fill="none" d="m9.54335,6.21737l0,-4.46338a4.878,4.878 0 0 0 -2.8988,1.00997l2.8988,3.4534z" class="cls-8"/>
   <path stroke="null" id="svg_17" fill="none" d="m9.86938,6.21737l2.83501,-3.36658a4.88331,4.88331 0 0 0 -2.83501,-1.08262l0,4.4492z" class="cls-8"/>
   <path stroke="null" id="svg_18" fill="none" d="m6.64455,2.76397l2.8988,3.4534l0,-4.46338a4.878,4.878 0 0 0 -2.8988,1.00997z" class="cls-8"/>
   <path stroke="null" id="svg_19" fill="none" d="m9.86938,2.30151l0,3.91586l2.83501,-3.36658a4.88331,4.88331 0 0 0 -2.83501,-1.08262l0,0.5422l0,-0.00886z" class="cls-8"/>
   <path stroke="null" id="svg_20" fill="none" d="m14.5312,6.66034a4.93115,4.93115 0 0 0 -0.04784,-0.67154l-4.30745,0.76014l3.79183,2.18119a4.85673,4.85673 0 0 0 0.56346,-2.26978z" class="cls-8"/>
   <path stroke="null" id="svg_21" fill="none" d="m9.39805,7.03244l-3.91409,2.25206a4.9347,4.9347 0 0 0 2.38318,1.94907l1.53091,-4.20114z" class="cls-8"/>
   <path stroke="null" id="svg_22" fill="none" d="m9.23504,6.74893l-4.46869,-0.78849a4.80358,4.80358 0 0 0 -0.05138,0.69989a4.87977,4.87977 0 0 0 0.60067,2.35129l3.91941,-2.2627z" class="cls-8"/>
   <path stroke="null" id="svg_23" fill="none" d="m10.12098,6.42645l4.31099,-0.76014a4.91521,4.91521 0 0 0 -1.47598,-2.61176l-2.83501,3.3719z" class="cls-8"/>
   <path stroke="null" id="svg_24" fill="none" d="m4.82305,5.63796l4.46869,0.78849l-2.89172,-3.45517a4.90635,4.90635 0 0 0 -1.57698,2.66669z" class="cls-8"/>
   <path stroke="null" id="svg_25" fill="#3594c3" d="m9.62308,0.24789a6.41245,6.41245 0 1 0 2.11563,12.46698l-0.24098,-0.26401l0,0a6.09528,6.09528 0 1 1 1.09148,-0.47664l0,0l0.22326,0.24452l0,0a6.41245,6.41245 0 0 0 -3.18939,-11.97085z" class="cls-9"/>
   <path stroke="null" id="svg_26" fill="#3594c3" d="m10.85809,11.74742l-0.25515,-0.27819a4.90458,4.90458 0 0 1 -2.43103,-0.11872l1.53091,-4.20823l0.97808,2.68795l0.02303,0.06379l0.0124,0.03367l0.55283,0.60598l0.02481,0.02658l0,0l-1.28107,-3.52782l3.7936,2.19005a4.92407,4.92407 0 0 1 -2.03944,1.85162l0.22857,0.25161l0,0a5.23946,5.23946 0 0 0 2.86159,-4.66537a5.35818,5.35818 0 0 0 -0.07442,-0.88594s0,0 0,0s0,0 0,0a5.23415,5.23415 0 1 0 -5.15618,6.13072a5.16859,5.16859 0 0 0 1.23146,-0.1577zm-5.37412,-2.46292l3.91409,-2.25206l-1.53091,4.21a4.9347,4.9347 0 0 1 -2.38318,-1.95793zm-0.769,-2.62416a4.80358,4.80358 0 0 1 0.05138,-0.69989l4.46869,0.78849l-3.91941,2.2627a4.87977,4.87977 0 0 1 -0.60067,-2.35129zm1.68506,-3.68906l2.90057,3.45517l-4.47755,-0.78849a4.90635,4.90635 0 0 1 1.57698,-2.66669zm6.55597,0.08328a4.91521,4.91521 0 0 1 1.4813,2.61176l-4.31631,0.76014l2.83501,-3.3719zm-2.78009,3.69438l4.30745,-0.76014a4.93115,4.93115 0 0 1 0.04784,0.67154a4.85673,4.85673 0 0 1 -0.56346,2.26978l-3.79183,-2.18119zm-0.30654,-4.98963a4.88331,4.88331 0 0 1 2.83501,1.08262l-2.83501,3.36658l0,-4.4492zm-0.32603,0l0,4.45806l-2.8988,-3.4534a4.878,4.878 0 0 1 2.8988,-1.00997l0,0.00532z" class="cls-9"/>
   <path stroke="null" id="svg_27" fill="#378cb7" d="m20.46702,4.26475a0.24806,0.24806 0 0 0 -0.2711,-0.11872a3.68552,3.68552 0 0 0 -2.30345,5.57435l0,0a0.19314,0.19314 0 0 0 0.04253,0.05138l0.01063,0.00886a0.19491,0.19491 0 0 0 0.05493,0.03544l0,0l0,0a0.27996,0.27996 0 0 0 0.06379,0.01595l0.01418,0a0.24629,0.24629 0 0 0 0.07265,0l0,0a3.68552,3.68552 0 0 0 2.30345,-5.57435l0.0124,0.00709zm-1.9349,4.9347l0.87354,-2.10854a0.24806,0.24806 0 0 0 -0.45715,-0.18959l-0.87354,2.11031a3.20179,3.20179 0 0 1 -0.02658,-2.48064l0,0a3.23014,3.23014 0 0 1 2.08728,-1.85339a3.23546,3.23546 0 0 1 0.17719,2.78363a3.19825,3.19825 0 0 1 -1.78074,1.73822z" class="cls-10"/>
   <path stroke="null" id="svg_28" fill="#378cb7" d="m18.11041,11.61807a0.21794,0.21794 0 0 0 -0.01418,0.06733a0.03898,0.03898 0 0 0 0,0.01418a0.30476,0.30476 0 0 0 -0.00177,0.06556l0,0a0.22149,0.22149 0 0 0 0.03189,0.07265a0.20199,0.20199 0 0 0 0.02658,0.02835l0.02481,0.02835l0,0a3.80955,3.80955 0 0 0 2.37078,0.8505a3.66071,3.66071 0 0 0 0.94441,-0.1258a3.73868,3.73868 0 0 0 2.50367,-2.30345a0.24806,0.24806 0 0 0 -0.07619,-0.2835a3.68729,3.68729 0 0 0 -5.82596,1.57166l0.01595,0.01418zm2.64188,-1.82681a3.23192,3.23192 0 0 1 2.73756,0.53157a3.23014,3.23014 0 0 1 -2.10145,1.83213a3.18939,3.18939 0 0 1 -2.4576,-0.35438l2.20422,-0.59358a0.24629,0.24629 0 1 0 -0.12935,-0.47664l-2.20245,0.59535a3.18939,3.18939 0 0 1 1.94907,-1.53445z" class="cls-10"/>
   <path stroke="null" id="svg_29" fill="#378cb7" d="m27.34015,8.78837a0.24806,0.24806 0 0 0 -0.06379,-0.20554l-5.49284,-5.67003a0.24629,0.24629 0 0 0 -0.17719,-0.07619l-5.46095,0a0.24806,0.24806 0 0 0 0,0.49436l5.35109,0l5.35109,5.51942l-2.2627,17.18728l-3.83259,4.19228l0.96568,-14.129a0.47841,0.47841 0 0 0 0.24275,-0.41639a0.4855,0.4855 0 1 0 -0.7371,0.41108l-1.00289,14.57552l-5.05341,0l-0.99757,-14.57552a0.48372,0.48372 0 1 0 -0.49436,0l0.96568,14.129l-3.83436,-4.18696l-1.57166,-11.89643s-0.02126,-0.17719 -0.26401,-0.15947s-0.23034,0.17719 -0.23034,0.17719l1.5947,12.11437a0.24452,0.24452 0 0 0 0.20731,0.20908l4.21177,4.59627l0,0l0.02303,0.02126l0.01418,0.01063l0.02835,0.01595l0.01418,0a0.13466,0.13466 0 0 0 0.03544,0.01063l0.01063,0a0.23566,0.23566 0 0 0 0.04961,0l5.52474,0a0.22503,0.22503 0 0 0 0.04961,0l0.0124,0a0.12403,0.12403 0 0 0 0.03367,-0.01063l0.01595,0l0.02658,-0.01595l0.01418,-0.01063l0.02303,-0.02126l0,0l4.20645,-4.59804a0.24629,0.24629 0 0 0 0.20731,-0.20908l2.29991,-17.3999a0.26047,0.26047 0 0 0 -0.00354,-0.08328z" class="cls-10"/>
   <path stroke="null" id="svg_30" fill="#378cb7" d="m25.89075,9.53256a0.48372,0.48372 0 0 0 -0.48372,0.48372a0.47664,0.47664 0 0 0 0.04607,0.20199l-3.84499,3.96016l-7.31079,0l-3.8379,-3.96016a0.47486,0.47486 0 0 0 0.0443,-0.20199a0.4855,0.4855 0 1 0 -0.48372,0.4855l0.02303,0l3.97611,4.09837a0.24452,0.24452 0 0 0 0.17719,0.07442l7.51988,0a0.24452,0.24452 0 0 0 0.17719,-0.07442l3.97434,-4.0966l0.02303,0a0.4855,0.4855 0 1 0 0,-0.96922l0,-0.00177z" class="cls-10"/>
   <path stroke="null" id="svg_31" fill="#378cb7" d="m25.41057,27.11852l-4.03812,4.21a0.24806,0.24806 0 0 0 0,0.35438a0.24275,0.24275 0 0 0 0.17719,0.0691a0.24806,0.24806 0 0 0 0.17719,-0.07619l4.03812,-4.21a0.24629,0.24629 0 0 0 -0.35438,-0.34197l0,-0.00532z" class="cls-10"/>
   <path stroke="null" id="svg_32" fill="#378cb7" d="m28.72577,7.98925l-5.49284,-5.79229a0.24806,0.24806 0 0 0 -0.35438,0.3402l5.41133,5.70547l-1.13578,8.00537a0.48727,0.48727 0 1 0 0.4855,0.08328l1.14287,-8.13826a0.24629,0.24629 0 0 0 -0.0567,-0.20377z" class="cls-10"/>
  </g>
 </g>
</svg>