<svg width="144.33" height="200" xmlns="http://www.w3.org/2000/svg" data-name="图层 1">

 <title>莫吉托logo新</title>
 <g>
  <title>Layer 1</title>
  <path id="svg_12" fill="none" d="m39.31,50.69l21.4,12.31a27.41,27.41 0 0 0 3.18,-12.85a27.83,27.83 0 0 0 -0.27,-3.79l-24.31,4.33z" class="cls-8"/>
  <path id="svg_13" fill="none" d="m55,29.84l-16,19l24.33,-4.29a27.74,27.74 0 0 0 -8.33,-14.71z" class="cls-8"/>
  <path id="svg_14" fill="none" d="m34,50.69l-25.22,-4.45a27.11,27.11 0 0 0 -0.29,3.95a27.54,27.54 0 0 0 3.39,13.27l22.12,-12.77z" class="cls-8"/>
  <path id="svg_15" fill="none" d="m18,29.37a27.69,27.69 0 0 0 -8.9,15.05l25.22,4.45l-16.32,-19.5z" class="cls-8"/>
  <path id="svg_16" fill="none" d="m35.74,47.69l0,-25.19a27.53,27.53 0 0 0 -16.36,5.7l16.36,19.49z" class="cls-8"/>
  <path id="svg_17" fill="none" d="m37.58,47.69l16,-19a27.56,27.56 0 0 0 -16,-6.11l0,25.11z" class="cls-8"/>
  <path id="svg_18" fill="none" d="m19.38,28.2l16.36,19.49l0,-25.19a27.53,27.53 0 0 0 -16.36,5.7z" class="cls-8"/>
  <path id="svg_19" fill="none" d="m37.58,25.59l0,22.1l16,-19a27.56,27.56 0 0 0 -16,-6.11l0,3.06l0,-0.05z" class="cls-8"/>
  <path id="svg_20" fill="none" d="m63.89,50.19a27.83,27.83 0 0 0 -0.27,-3.79l-24.31,4.29l21.4,12.31a27.41,27.41 0 0 0 3.18,-12.81z" class="cls-8"/>
  <path id="svg_21" fill="none" d="m34.92,52.29l-22.09,12.71a27.85,27.85 0 0 0 13.45,11l8.64,-23.71z" class="cls-8"/>
  <path id="svg_22" fill="none" d="m34,50.69l-25.22,-4.45a27.11,27.11 0 0 0 -0.29,3.95a27.54,27.54 0 0 0 3.39,13.27l22.12,-12.77z" class="cls-8"/>
  <path id="svg_23" fill="none" d="m39,48.87l24.33,-4.29a27.74,27.74 0 0 0 -8.33,-14.74l-16,19.03z" class="cls-8"/>
  <path id="svg_24" fill="none" d="m9.1,44.42l25.22,4.45l-16.32,-19.5a27.69,27.69 0 0 0 -8.9,15.05z" class="cls-8"/>
  <path id="svg_25" fill="#3594c3" d="m36.19,14a36.19,36.19 0 1 0 11.94,70.36l-1.36,-1.49l0,0a34.4,34.4 0 1 1 6.16,-2.69l0,0l1.26,1.38l0,0a36.19,36.19 0 0 0 -18,-67.56z" class="cls-9"/>
  <path id="svg_26" fill="#3594c3" d="m43.16,78.9l-1.44,-1.57a27.68,27.68 0 0 1 -13.72,-0.67l8.64,-23.75l5.52,15.17l0.13,0.36l0.07,0.19l3.12,3.42l0.14,0.15l0,0l-7.23,-19.91l21.41,12.36a27.79,27.79 0 0 1 -11.51,10.45l1.29,1.42l0,0a29.57,29.57 0 0 0 16.15,-26.33a30.24,30.24 0 0 0 -0.42,-5s0,0 0,0s0,0 0,0a29.54,29.54 0 1 0 -29.1,34.6a29.17,29.17 0 0 0 6.95,-0.89zm-30.33,-13.9l22.09,-12.71l-8.64,23.76a27.85,27.85 0 0 1 -13.45,-11.05zm-4.34,-14.81a27.11,27.11 0 0 1 0.29,-3.95l25.22,4.45l-22.12,12.77a27.54,27.54 0 0 1 -3.39,-13.27zm9.51,-20.82l16.37,19.5l-25.27,-4.45a27.69,27.69 0 0 1 8.9,-15.05zm37,0.47a27.74,27.74 0 0 1 8.36,14.74l-24.36,4.29l16,-19.03zm-15.69,20.85l24.31,-4.29a27.83,27.83 0 0 1 0.27,3.79a27.41,27.41 0 0 1 -3.18,12.81l-21.4,-12.31zm-1.73,-28.16a27.56,27.56 0 0 1 16,6.11l-16,19l0,-25.11zm-1.84,0l0,25.16l-16.36,-19.49a27.53,27.53 0 0 1 16.36,-5.7l0,0.03z" class="cls-9"/>
  <path id="svg_27" fill="#378cb7" d="m97.39,36.67a1.4,1.4 0 0 0 -1.53,-0.67a20.8,20.8 0 0 0 -13,31.46l0,0a1.09,1.09 0 0 0 0.24,0.29l0.06,0.05a1.1,1.1 0 0 0 0.31,0.2l0,0l0,0a1.58,1.58 0 0 0 0.36,0.09l0.08,0a1.39,1.39 0 0 0 0.41,0l0,0a20.8,20.8 0 0 0 13,-31.46l0.07,0.04zm-10.92,27.85l4.93,-11.9a1.4,1.4 0 0 0 -2.58,-1.07l-4.93,11.91a18.07,18.07 0 0 1 -0.15,-14l0,0a18.23,18.23 0 0 1 11.78,-10.46a18.26,18.26 0 0 1 1,15.71a18.05,18.05 0 0 1 -10.05,9.81z" class="cls-10"/>
  <path id="svg_28" fill="#378cb7" d="m84.09,78.17a1.23,1.23 0 0 0 -0.08,0.38a0.22,0.22 0 0 0 0,0.08a1.72,1.72 0 0 0 -0.01,0.37l0,0a1.25,1.25 0 0 0 0.18,0.41a1.14,1.14 0 0 0 0.15,0.16l0.14,0.16l0,0a21.5,21.5 0 0 0 13.38,4.8a20.66,20.66 0 0 0 5.33,-0.71a21.1,21.1 0 0 0 14.13,-13a1.4,1.4 0 0 0 -0.43,-1.6a20.81,20.81 0 0 0 -32.88,8.87l0.09,0.08zm14.91,-10.31a18.24,18.24 0 0 1 15.45,3a18.23,18.23 0 0 1 -11.86,10.34a18,18 0 0 1 -13.87,-2l12.44,-3.35a1.39,1.39 0 1 0 -0.73,-2.69l-12.43,3.36a18,18 0 0 1 11,-8.66z" class="cls-10"/>
  <path id="svg_29" fill="#378cb7" d="m136.18,62.2a1.4,1.4 0 0 0 -0.36,-1.16l-31,-32a1.39,1.39 0 0 0 -1,-0.43l-30.82,0a1.4,1.4 0 0 0 0,2.79l30.2,0l30.2,31.15l-12.77,97l-21.63,23.66l5.45,-79.74a2.7,2.7 0 0 0 1.37,-2.35a2.74,2.74 0 1 0 -4.16,2.32l-5.66,82.26l-28.52,0l-5.63,-82.26a2.73,2.73 0 1 0 -2.79,0l5.45,79.74l-21.64,-23.63l-8.87,-67.14s-0.12,-1 -1.49,-0.9s-1.3,1 -1.3,1l9,68.37a1.38,1.38 0 0 0 1.17,1.18l23.77,25.94l0,0l0.13,0.12l0.08,0.06l0.16,0.09l0.08,0a0.76,0.76 0 0 0 0.2,0.06l0.06,0a1.33,1.33 0 0 0 0.28,0l31.18,0a1.27,1.27 0 0 0 0.28,0l0.07,0a0.7,0.7 0 0 0 0.19,-0.06l0.09,0l0.15,-0.09l0.08,-0.06l0.13,-0.12l0,0l23.74,-25.95a1.39,1.39 0 0 0 1.17,-1.18l12.98,-98.2a1.47,1.47 0 0 0 -0.02,-0.47z" class="cls-10"/>
  <path id="svg_30" fill="#378cb7" d="m128,66.4a2.73,2.73 0 0 0 -2.73,2.73a2.69,2.69 0 0 0 0.26,1.14l-21.7,22.35l-41.26,0l-21.66,-22.35a2.68,2.68 0 0 0 0.25,-1.14a2.74,2.74 0 1 0 -2.73,2.74l0.13,0l22.44,23.13a1.38,1.38 0 0 0 1,0.42l42.44,0a1.38,1.38 0 0 0 1,-0.42l22.43,-23.12l0.13,0a2.74,2.74 0 1 0 0,-5.47l0,-0.01z" class="cls-10"/>
  <path id="svg_31" fill="#378cb7" d="m125.29,165.65l-22.79,23.76a1.4,1.4 0 0 0 0,2a1.37,1.37 0 0 0 1,0.39a1.4,1.4 0 0 0 1,-0.43l22.79,-23.76a1.39,1.39 0 0 0 -2,-1.93l0,-0.03z" class="cls-10"/>
  <path id="svg_32" fill="#378cb7" d="m144,57.69l-31,-32.69a1.4,1.4 0 0 0 -2,1.92l30.54,32.2l-6.41,45.18a2.75,2.75 0 1 0 2.74,0.47l6.45,-45.93a1.39,1.39 0 0 0 -0.32,-1.15z" class="cls-10"/>
 </g>
</svg>