<svg id="图层_1" data-name="图层 1" xmlns="http://www.w3.org/2000/svg" xmlns:xlink="http://www.w3.org/1999/xlink" viewBox="0 0 144.33 200"><defs><style>.cls-1{fill:#daedf7;}.cls-2{fill:#fff;}.cls-3{fill:#228ece;}.cls-4{fill:#74c3d5;}.cls-5{fill:#b8dcec;}.cls-6{fill:#95cfe2;}.cls-7{fill:url(#未命名的渐变_15);}.cls-8{fill:none;}.cls-9{fill:#3594c3;}.cls-10{fill:#378cb7;}</style><linearGradient id="未命名的渐变_15" x1="40.26" y1="191.37" x2="59.68" y2="191.37" gradientUnits="userSpaceOnUse"><stop offset="0" stop-color="#54bfca"/><stop offset="1" stop-color="#228ece"/></linearGradient></defs><title>莫吉托logo新</title><path class="cls-1" d="M51.69,186.24l1.16-3.18a12.52,12.52,0,0,0-2.88-.32v3.33A9.2,9.2,0,0,1,51.69,186.24Z"/><path class="cls-2" d="M23.15,199.16,18,189.83a.31.31,0,0,0-.59.16v8.13a1.07,1.07,0,0,0,.21.71,1.54,1.54,0,0,0,.73.4v.42H12.83v-.42a1.39,1.39,0,0,0,.73-.38,1.09,1.09,0,0,0,.21-.71V184.6a1.1,1.1,0,0,0-.2-.7,1.54,1.54,0,0,0-.74-.39v-.41h7v.41a.85.85,0,0,0-.69.84,3,3,0,0,0,.5,1.48l3.85,7a.32.32,0,0,0,.55,0l3.88-6.89a4,4,0,0,0,.71-1.65c0-.41-.24-.66-.72-.77v-.41h6.81v.41a1.54,1.54,0,0,0-.74.39,1,1,0,0,0-.2.7v13.52a1.06,1.06,0,0,0,.2.71,1.47,1.47,0,0,0,.74.4v.42H28.86v-.42a1.42,1.42,0,0,0,.73-.38,1.09,1.09,0,0,0,.22-.71v-8.21a.32.32,0,0,0-.59-.16l-5.52,9.4A.32.32,0,0,1,23.15,199.16Z"/><path class="cls-2" d="M63.86,199.2l1.46-4.5.39.13a1.1,1.1,0,0,0,.32.84,4.48,4.48,0,0,0,1.65.66,7.44,7.44,0,0,0,2.24.37,3.39,3.39,0,0,0,2.35-.54A2.84,2.84,0,0,0,73,194V184.6a1,1,0,0,0-.21-.69,1.63,1.63,0,0,0-.74-.4v-.41h5.85v.41a1.54,1.54,0,0,0-.74.39,1,1,0,0,0-.2.7v9.45a6.46,6.46,0,0,1-.92,3.9,4.82,4.82,0,0,1-2.23,1.51,9.79,9.79,0,0,1-3.36.54,17.06,17.06,0,0,1-5.11-1,1.93,1.93,0,0,0-.46-.08.89.89,0,0,0-.66.38Z"/><path class="cls-2" d="M105.16,186.1a.68.68,0,0,0-.69.68v11.34a1.07,1.07,0,0,0,.21.71,1.58,1.58,0,0,0,.74.4v.42H99.57v-.42a1.39,1.39,0,0,0,.73-.38,1.09,1.09,0,0,0,.21-.71V186.78a.67.67,0,0,0-.68-.68H95.64a1.07,1.07,0,0,0-.72.21,1.5,1.5,0,0,0-.39.73h-.4v-4.89h.4a1.35,1.35,0,0,0,.38.73,1.06,1.06,0,0,0,.71.22h13.73a1.1,1.1,0,0,0,.72-.21,1.5,1.5,0,0,0,.39-.74h.4V187h-.4a1.5,1.5,0,0,0-.39-.73,1.1,1.1,0,0,0-.72-.21Z"/><path class="cls-2" d="M124.85,182.74a10.5,10.5,0,0,1,6.58,2,8,8,0,0,1,3.15,6.75,7.76,7.76,0,0,1-3.15,6.49,11.68,11.68,0,0,1-13.1,0,8.51,8.51,0,0,1,0-13.24A10.78,10.78,0,0,1,124.85,182.74Zm0,3.33a5.48,5.48,0,0,0-4.18,1.44,5.69,5.69,0,0,0,0,7.7c1.07,1.11,2.46,1.32,4.18,1.32s3.1-.21,4.18-1.32a5.18,5.18,0,0,0,1.49-3.77,5.35,5.35,0,0,0-1.49-3.93A5.68,5.68,0,0,0,124.88,186.07Z"/><polygon class="cls-3" points="88.57 199.62 84.53 199.62 84.53 184.86 86.55 183.1 88.57 184.86 88.57 199.62"/><rect class="cls-4" x="84.53" y="190.04" width="4.04" height="9.58"/><path class="cls-5" d="M54.12,187.49,57,185.12c-.14-.13-.27-.25-.42-.37a9.48,9.48,0,0,0-3.68-1.69l-1.16,3.18A4.74,4.74,0,0,1,54.12,187.49Z"/><path class="cls-6" d="M57,185.12l-2.83,2.37,0,0a5.31,5.31,0,0,1,1.5,3.93,4.58,4.58,0,0,1,0,.53l4,.7a8.84,8.84,0,0,0,.08-1.17A8,8,0,0,0,57,185.12Z"/><path class="cls-4" d="M54.15,195.21a4.14,4.14,0,0,1-2.21,1.16l1.18,3.25A9.38,9.38,0,0,0,56.53,198a7.61,7.61,0,0,0,3.07-5.32l-4-.7A5,5,0,0,1,54.15,195.21Z"/><path class="cls-7" d="M50,196.53c-1.71,0-3.1-.21-4.18-1.32a5.72,5.72,0,0,1,0-7.7A5.51,5.51,0,0,1,50,186.07v-3.33h0a10.76,10.76,0,0,0-6.52,2,8.5,8.5,0,0,0,0,13.24A10.39,10.39,0,0,0,50,200a12.51,12.51,0,0,0,3.14-.38l-1.18-3.25A10.21,10.21,0,0,1,50,196.53Z"/><path class="cls-8" d="M39.31,36.69,60.71,49a27.41,27.41,0,0,0,3.18-12.85,27.83,27.83,0,0,0-.27-3.79Z"/><path class="cls-8" d="M55,15.84l-16,19,24.33-4.29A27.74,27.74,0,0,0,55,15.84Z"/><path class="cls-8" d="M34,36.69,8.78,32.24a27.11,27.11,0,0,0-.29,3.95,27.54,27.54,0,0,0,3.39,13.27Z"/><path class="cls-8" d="M18,15.37A27.69,27.69,0,0,0,9.1,30.42l25.22,4.45Z"/><path class="cls-8" d="M35.74,33.69V8.5a27.53,27.53,0,0,0-16.36,5.7Z"/><path class="cls-8" d="M37.58,33.69l16-19a27.56,27.56,0,0,0-16-6.11Z"/><path class="cls-8" d="M19.38,14.2,35.74,33.69V8.5A27.53,27.53,0,0,0,19.38,14.2Z"/><path class="cls-8" d="M37.58,11.59v22.1l16-19a27.56,27.56,0,0,0-16-6.11v3.06Z"/><path class="cls-8" d="M63.89,36.19a27.83,27.83,0,0,0-.27-3.79L39.31,36.69,60.71,49A27.41,27.41,0,0,0,63.89,36.19Z"/><path class="cls-8" d="M34.92,38.29,12.83,51a27.85,27.85,0,0,0,13.45,11Z"/><path class="cls-8" d="M34,36.69,8.78,32.24a27.11,27.11,0,0,0-.29,3.95,27.54,27.54,0,0,0,3.39,13.27Z"/><path class="cls-8" d="M39,34.87l24.33-4.29A27.74,27.74,0,0,0,55,15.84Z"/><path class="cls-8" d="M9.1,30.42l25.22,4.45L18,15.37A27.69,27.69,0,0,0,9.1,30.42Z"/><path class="cls-9" d="M36.19,0A36.19,36.19,0,1,0,48.13,70.36l-1.36-1.49h0a34.4,34.4,0,1,1,6.16-2.69h0l1.26,1.38v0A36.19,36.19,0,0,0,36.19,0Z"/><path class="cls-9" d="M43.16,64.9l-1.44-1.57A27.68,27.68,0,0,1,28,62.66l8.64-23.75,5.52,15.17.13.36.07.19,3.12,3.42.14.15v0L38.39,38.29,59.8,50.65A27.79,27.79,0,0,1,48.29,61.1l1.29,1.42h0A29.57,29.57,0,0,0,65.73,36.19a30.24,30.24,0,0,0-.42-5s0,0,0,0,0,0,0,0a29.54,29.54,0,1,0-29.1,34.6A29.17,29.17,0,0,0,43.16,64.9ZM12.83,51,34.92,38.29,26.28,62.05A27.85,27.85,0,0,1,12.83,51ZM8.49,36.19a27.11,27.11,0,0,1,.29-3.95L34,36.69,11.88,49.46A27.54,27.54,0,0,1,8.49,36.19ZM18,15.37l16.37,19.5L9.1,30.42A27.69,27.69,0,0,1,18,15.37Zm37,.47a27.74,27.74,0,0,1,8.36,14.74L39,34.87ZM39.31,36.69,63.62,32.4a27.83,27.83,0,0,1,.27,3.79A27.41,27.41,0,0,1,60.71,49ZM37.58,8.53a27.56,27.56,0,0,1,16,6.11l-16,19V8.53Zm-1.84,0V33.69L19.38,14.2A27.53,27.53,0,0,1,35.74,8.5Z"/><path class="cls-10" d="M97.39,22.67A1.4,1.4,0,0,0,95.86,22a20.8,20.8,0,0,0-13,31.46h0a1.09,1.09,0,0,0,.24.29l.06.05a1.1,1.1,0,0,0,.31.2h0l0,0a1.58,1.58,0,0,0,.36.09h.08a1.39,1.39,0,0,0,.41,0h0a20.8,20.8,0,0,0,13-31.46ZM86.47,50.52l4.93-11.9a1.4,1.4,0,0,0-2.58-1.07L83.89,49.46a18.07,18.07,0,0,1-.15-14h0A18.23,18.23,0,0,1,95.52,25a18.26,18.26,0,0,1,1,15.71A18.05,18.05,0,0,1,86.47,50.52Z"/><path class="cls-10" d="M84.09,64.17a1.23,1.23,0,0,0-.08.38.22.22,0,0,0,0,.08A1.72,1.72,0,0,0,84,65h0a1.25,1.25,0,0,0,.18.41,1.14,1.14,0,0,0,.15.16l.14.16h0a21.5,21.5,0,0,0,13.38,4.8,20.66,20.66,0,0,0,5.33-.71,21.1,21.1,0,0,0,14.13-13,1.4,1.4,0,0,0-.43-1.6,20.81,20.81,0,0,0-32.88,8.87ZM99,53.86a18.24,18.24,0,0,1,15.45,3,18.23,18.23,0,0,1-11.86,10.34,18,18,0,0,1-13.87-2l12.44-3.35a1.39,1.39,0,1,0-.73-2.69L88,62.52A18,18,0,0,1,99,53.86Z"/><path class="cls-10" d="M136.18,48.2a1.4,1.4,0,0,0-.36-1.16l-31-32a1.39,1.39,0,0,0-1-.43H73a1.4,1.4,0,0,0,0,2.79H103.2l30.2,31.15-12.77,97L99,169.21l5.45-79.74a2.7,2.7,0,0,0,1.37-2.35,2.74,2.74,0,1,0-4.16,2.32L96,171.7H67.48L61.85,89.44a2.73,2.73,0,1,0-2.79,0l5.45,79.74L42.87,145.55,34,78.41s-.12-1-1.49-.9-1.3,1-1.3,1l9,68.37a1.38,1.38,0,0,0,1.17,1.18L65.15,174l0,0,.13.12.08.06.16.09.08,0a.76.76,0,0,0,.2.06l.06,0a1.33,1.33,0,0,0,.28,0H97.32a1.27,1.27,0,0,0,.28,0l.07,0a.7.7,0,0,0,.19-.06l.09,0,.15-.09.08-.06.13-.12,0,0,23.74-25.95a1.39,1.39,0,0,0,1.17-1.18L136.2,48.67A1.47,1.47,0,0,0,136.18,48.2Z"/><path class="cls-10" d="M128,52.4a2.73,2.73,0,0,0-2.73,2.73,2.69,2.69,0,0,0,.26,1.14L103.83,78.62H62.57L40.91,56.27a2.68,2.68,0,0,0,.25-1.14,2.74,2.74,0,1,0-2.73,2.74h.13L61,81a1.38,1.38,0,0,0,1,.42h42.44a1.38,1.38,0,0,0,1-.42l22.43-23.12H128a2.74,2.74,0,1,0,0-5.47Z"/><path class="cls-10" d="M125.29,151.65,102.5,175.41a1.4,1.4,0,0,0,0,2,1.37,1.37,0,0,0,1,.39,1.4,1.4,0,0,0,1-.43l22.79-23.76a1.39,1.39,0,0,0-2-1.93Z"/><path class="cls-10" d="M144,43.69,113,11a1.4,1.4,0,0,0-2,1.92l30.54,32.2L135.13,90.3a2.75,2.75,0,1,0,2.74.47l6.45-45.93A1.39,1.39,0,0,0,144,43.69Z"/></svg>