<svg id="图层_1" data-name="图层 1" xmlns="http://www.w3.org/2000/svg" xmlns:xlink="http://www.w3.org/1999/xlink" viewBox="0 0 72.17 100"><defs><style>.cls-1{fill:#daedf7;}.cls-2{fill:#fff;}.cls-3{fill:#228ece;}.cls-4{fill:#74c3d5;}.cls-5{fill:#b8dcec;}.cls-6{fill:#95cfe2;}.cls-7{fill:url(#未命名的渐变_15);}.cls-8{fill:none;}.cls-9{fill:#3594c3;}.cls-10{fill:#378cb7;}</style><linearGradient id="未命名的渐变_15" x1="20.13" y1="95.69" x2="29.84" y2="95.69" gradientUnits="userSpaceOnUse"><stop offset="0" stop-color="#54bfca"/><stop offset="1" stop-color="#228ece"/></linearGradient></defs><title>莫吉托logo新</title><path class="cls-1" d="M25.85,93.12l.58-1.59A6.62,6.62,0,0,0,25,91.37V93A4.74,4.74,0,0,1,25.85,93.12Z"/><path class="cls-2" d="M11.57,99.58,9,94.92a.16.16,0,0,0-.3.07v4.07a.52.52,0,0,0,.1.35.84.84,0,0,0,.37.21v.2H6.41v-.2a.68.68,0,0,0,.37-.2.52.52,0,0,0,.11-.35V92.3A.52.52,0,0,0,6.78,92a.75.75,0,0,0-.37-.2v-.2h3.5v.2a.44.44,0,0,0-.35.43,1.62,1.62,0,0,0,.25.73l1.93,3.5a.16.16,0,0,0,.28,0L14,93a2.09,2.09,0,0,0,.35-.83q0-.3-.36-.39v-.2h3.41v.2A.75.75,0,0,0,17,92a.52.52,0,0,0-.11.35v6.76a.57.57,0,0,0,.11.36.75.75,0,0,0,.37.2v.2H14.43v-.2a.76.76,0,0,0,.37-.2.52.52,0,0,0,.1-.35V95a.16.16,0,0,0-.29-.08l-2.76,4.7A.16.16,0,0,1,11.57,99.58Z"/><path class="cls-2" d="M31.93,99.6l.73-2.25.19.06a.58.58,0,0,0,.17.43,2.27,2.27,0,0,0,.82.33,3.89,3.89,0,0,0,1.12.18,1.69,1.69,0,0,0,1.18-.27A1.44,1.44,0,0,0,36.52,97V92.3a.52.52,0,0,0-.11-.35.88.88,0,0,0-.37-.2v-.2H39v.2a.75.75,0,0,0-.37.2.52.52,0,0,0-.1.35V97A3.25,3.25,0,0,1,38,99a2.35,2.35,0,0,1-1.12.76,4.84,4.84,0,0,1-1.67.27,8.58,8.58,0,0,1-2.56-.49.74.74,0,0,0-.23,0,.44.44,0,0,0-.33.19Z"/><path class="cls-2" d="M52.58,93.05a.34.34,0,0,0-.34.34v5.67a.52.52,0,0,0,.1.35.84.84,0,0,0,.37.21v.2H49.78v-.2a.68.68,0,0,0,.37-.2.52.52,0,0,0,.11-.35V93.39a.35.35,0,0,0-.35-.34H47.82a.53.53,0,0,0-.36.1.8.8,0,0,0-.2.37h-.2V91.08h.2a.75.75,0,0,0,.19.36.53.53,0,0,0,.36.11h6.86a.53.53,0,0,0,.36-.11.71.71,0,0,0,.2-.36h.2v2.44h-.2a.8.8,0,0,0-.2-.37.53.53,0,0,0-.36-.1Z"/><path class="cls-2" d="M62.43,91.37a5.28,5.28,0,0,1,3.29,1,4,4,0,0,1,1.57,3.37A3.89,3.89,0,0,1,65.72,99a5.86,5.86,0,0,1-6.55,0,4,4,0,0,1-1.59-3.31,3.89,3.89,0,0,1,1.59-3.31A5.38,5.38,0,0,1,62.43,91.37Zm0,1.67a2.72,2.72,0,0,0-2.09.72,2.85,2.85,0,0,0,0,3.85,3.64,3.64,0,0,0,4.18,0,2.59,2.59,0,0,0,.75-1.89,2.63,2.63,0,0,0-.75-2A2.81,2.81,0,0,0,62.44,93Z"/><polygon class="cls-3" points="44.28 99.81 42.27 99.81 42.27 92.43 43.27 91.55 44.28 92.43 44.28 99.81"/><rect class="cls-4" x="42.27" y="95.02" width="2.02" height="4.79"/><path class="cls-5" d="M27.06,93.74l1.42-1.18-.21-.18a4.78,4.78,0,0,0-1.84-.85l-.58,1.59A2.42,2.42,0,0,1,27.06,93.74Z"/><path class="cls-6" d="M28.48,92.56l-1.42,1.18,0,0a2.66,2.66,0,0,1,.74,2,2.17,2.17,0,0,1,0,.26l2,.36a5.65,5.65,0,0,0,0-.59A4,4,0,0,0,28.48,92.56Z"/><path class="cls-4" d="M27.08,97.61a2.05,2.05,0,0,1-1.11.57l.59,1.63A4.66,4.66,0,0,0,28.27,99a3.84,3.84,0,0,0,1.53-2.66l-2-.36A2.58,2.58,0,0,1,27.08,97.61Z"/><path class="cls-7" d="M25,98.27a2.46,2.46,0,0,1-2.84-2.58,2.64,2.64,0,0,1,.75-1.93A2.71,2.71,0,0,1,25,93V91.37h0a5.41,5.41,0,0,0-3.27,1,3.91,3.91,0,0,0-1.58,3.31A4,4,0,0,0,21.71,99,5.21,5.21,0,0,0,25,100a6.43,6.43,0,0,0,1.57-.19L26,98.18A4.36,4.36,0,0,1,25,98.27Z"/><path class="cls-8" d="M19.66,18.34l10.7,6.18a13.78,13.78,0,0,0,1.58-6.43,13.14,13.14,0,0,0-.13-1.89Z"/><path class="cls-8" d="M27.48,7.92l-8,9.52,12.16-2.15A13.89,13.89,0,0,0,27.48,7.92Z"/><path class="cls-8" d="M17,18.34,4.39,16.12a14.27,14.27,0,0,0-.14,2,13.76,13.76,0,0,0,1.69,6.64Z"/><path class="cls-8" d="M9,7.68a13.86,13.86,0,0,0-4.43,7.53l12.61,2.23Z"/><path class="cls-8" d="M17.87,16.84V4.25A13.76,13.76,0,0,0,9.69,7.1Z"/><path class="cls-8" d="M18.79,16.84l8-9.52a13.74,13.74,0,0,0-8-3.06Z"/><path class="cls-8" d="M9.69,7.1l8.18,9.74V4.25A13.76,13.76,0,0,0,9.69,7.1Z"/><path class="cls-8" d="M18.79,5.8v11l8-9.52a13.74,13.74,0,0,0-8-3.06V5.8Z"/><path class="cls-8" d="M31.94,18.09a13.14,13.14,0,0,0-.13-1.89L19.66,18.34l10.7,6.18A13.78,13.78,0,0,0,31.94,18.09Z"/><path class="cls-8" d="M17.46,19.14l-11,6.38A13.89,13.89,0,0,0,13.14,31Z"/><path class="cls-8" d="M17,18.34,4.39,16.12a14.27,14.27,0,0,0-.14,2,13.76,13.76,0,0,0,1.69,6.64Z"/><path class="cls-8" d="M19.5,17.44l12.16-2.15a13.89,13.89,0,0,0-4.18-7.37Z"/><path class="cls-8" d="M4.55,15.21l12.61,2.23L9,7.68A13.86,13.86,0,0,0,4.55,15.21Z"/><path class="cls-9" d="M18.09,0a18.1,18.1,0,1,0,6,35.18l-.68-.75h0a17.24,17.24,0,1,1,3.08-1.35h0l.63.69h0A18.09,18.09,0,0,0,18.09,0Z"/><path class="cls-9" d="M21.58,32.45l-.72-.79a13.28,13.28,0,0,1-2.77.28A13.75,13.75,0,0,1,14,31.33l4.32-11.87L21.09,27l.06.18,0,.09L22.75,29l.07.08h0l-3.63-9.95L29.9,25.32a13.92,13.92,0,0,1-5.76,5.23l.65.71h0a14.8,14.8,0,0,0,8.08-13.17,14.57,14.57,0,0,0-.22-2.48v0A14.79,14.79,0,1,0,21.58,32.45ZM6.41,25.52l11.05-6.38L13.14,31A13.89,13.89,0,0,1,6.41,25.52ZM4.25,18.09a14.27,14.27,0,0,1,.14-2L17,18.34,5.94,24.73A13.76,13.76,0,0,1,4.25,18.09ZM9,7.68l8.18,9.76L4.55,15.21A13.86,13.86,0,0,1,9,7.68Zm18.5.24a13.89,13.89,0,0,1,4.18,7.37L19.5,17.44ZM19.66,18.34,31.81,16.2a13.14,13.14,0,0,1,.13,1.89,13.78,13.78,0,0,1-1.58,6.43ZM18.79,4.26a13.74,13.74,0,0,1,8,3.06l-8,9.52V4.26Zm-.92,0V16.84L9.69,7.1A13.76,13.76,0,0,1,17.87,4.25Z"/><path class="cls-10" d="M48.69,11.34a.69.69,0,0,0-.76-.32,10.4,10.4,0,0,0-6.52,15.73h0a.53.53,0,0,0,.12.14l0,0,.15.1h0l.19,0h0a.69.69,0,0,0,.2,0h0a10.39,10.39,0,0,0,6.51-15.73ZM43.23,25.26l2.47-6a.7.7,0,0,0-.38-.91.69.69,0,0,0-.91.38L42,24.73a9,9,0,0,1-.08-7h0a9.1,9.1,0,0,1,5.89-5.22,9.12,9.12,0,0,1,.48,7.85A9,9,0,0,1,43.23,25.26Z"/><path class="cls-10" d="M42,32.08a1.62,1.62,0,0,0,0,.19v0a.65.65,0,0,0,0,.19h0a.54.54,0,0,0,.1.2.71.71,0,0,0,.07.09.46.46,0,0,0,.07.07h0A10.77,10.77,0,0,0,49,35.28a10.07,10.07,0,0,0,2.66-.35,10.57,10.57,0,0,0,7.07-6.49.71.71,0,0,0-.21-.8,10.4,10.4,0,0,0-16.44,4.43Zm7.44-5.15a9.08,9.08,0,0,1,7.72,1.49,9,9,0,0,1-12.86,4.19l6.21-1.68a.69.69,0,0,0,.5-.85.7.7,0,0,0-.86-.5L44,31.26A9.06,9.06,0,0,1,49.48,26.93Z"/><path class="cls-10" d="M68.09,24.1a.7.7,0,0,0-.18-.58L52.4,7.52a.75.75,0,0,0-.5-.21H36.48a.7.7,0,0,0,0,1.4H51.6L66.7,24.28,60.31,72.77,49.49,84.6l2.73-39.86a1.39,1.39,0,0,0,.68-1.18,1.37,1.37,0,1,0-2.08,1.16L48,85.85H33.74L30.93,44.72a1.37,1.37,0,1,0-2.08-1.16,1.39,1.39,0,0,0,.68,1.18L32.26,84.6,21.43,72.77,17,39.2s-.06-.48-.75-.45-.65.51-.65.51l4.51,34.19a.69.69,0,0,0,.58.59L32.57,87h0l.07.06,0,0,.07,0,0,0,.09,0H48.83l.1,0,0,0a.2.2,0,0,0,.08,0l0,0,.07-.06h0L61,74a.69.69,0,0,0,.59-.59L68.1,24.34A1,1,0,0,0,68.09,24.1Z"/><path class="cls-10" d="M64,26.2a1.37,1.37,0,0,0-1.37,1.37,1.4,1.4,0,0,0,.13.57L51.92,39.31H31.28L20.45,28.14a1.4,1.4,0,0,0,.13-.57,1.37,1.37,0,1,0-1.37,1.36h.07L30.49,40.49a.67.67,0,0,0,.5.21H52.21a.67.67,0,0,0,.5-.21L63.92,28.93H64a1.37,1.37,0,0,0,0-2.73Z"/><path class="cls-10" d="M62.65,75.83,51.25,87.71a.7.7,0,0,0,1,1L63.65,76.79a.69.69,0,1,0-1-1Z"/><path class="cls-10" d="M72,21.85,56.48,5.5a.71.71,0,0,0-1,0,.7.7,0,0,0,0,1l15.26,16.1L67.56,45.15a1.36,1.36,0,1,0,1.38.23l3.22-23A.69.69,0,0,0,72,21.85Z"/></svg>